<svg viewBox="0 0 60 60" xmlns="http://www.w3.org/2000/svg"><path d="M60 5v8.63c-3.314.875-5.834 2.118-7.56 3.729-1.727 1.611-3.107 3.67-4.143 6.18-1.036 2.508-1.554 5.558-1.554 9.148 4.235 0 7.377 1.208 9.425 3.625 2.048 2.416 3.073 4.983 3.073 7.698 0 3.222-1.128 5.927-3.384 8.113-2.255 2.187-4.879 3.28-7.87 3.28-3.913 0-7.262-1.669-10.047-5.006-2.785-3.337-4.177-7.906-4.177-13.705 0-5.11 1.105-9.897 3.314-14.362 2.21-4.465 5.213-8.285 9.01-11.461C49.885 7.693 54.522 5.736 60 5zM26.237 5v8.63c-3.314.875-5.834 2.118-7.56 3.729-1.726 1.611-3.107 3.67-4.143 6.18-1.036 2.508-1.554 5.558-1.554 9.148 4.281 0 7.434 1.208 9.46 3.625 2.025 2.416 3.038 4.983 3.038 7.698 0 3.222-1.128 5.927-3.384 8.113-2.255 2.187-4.879 3.28-7.87 3.28-3.867 0-7.204-1.669-10.012-5.006C1.404 47.06 0 42.491 0 36.692c0-5.11 1.105-9.897 3.314-14.362 2.21-4.465 5.213-8.285 9.01-11.461C16.123 7.693 20.76 5.736 26.238 5z" fill="#DCDEE0" fill-rule="evenodd"/></svg>